<svg width="17" height="32" viewBox="0 0 17 32" fill="none" xmlns="http://www.w3.org/2000/svg">
<path d="M15.1597 2.125H11.6875V0H5.3125V2.125H1.84025C0.825563 2.125 0 2.95056 0 3.96525V30.0347C0 31.0494 0.825563 31.875 1.84025 31.875H15.1592C16.1744 31.875 17 31.0494 17 30.0347V3.96525C17 2.95056 16.1744 2.125 15.1597 2.125ZM15.9375 30.0347C15.9375 30.464 15.5885 30.8125 15.1597 30.8125H1.84025C1.41153 30.8125 1.0625 30.464 1.0625 30.0347V3.96525C1.0625 3.536 1.41153 3.1875 1.84025 3.1875H5.3125H11.6875H15.1597C15.5885 3.1875 15.9375 3.536 15.9375 3.96525V30.0347Z" fill="#5B5959"/>
<path d="M12.2188 15.4063H10.625V9.08864C10.6319 8.95052 10.5884 8.81505 10.4996 8.70614C10.2972 8.45805 9.82813 8.46018 9.62732 8.70827C9.61351 8.72527 9.60076 8.74333 9.58907 8.76299L4.3297 17.2518C4.22823 17.416 4.22345 17.6216 4.31748 17.79C4.41098 17.9584 4.58842 18.0625 4.78126 18.0625H6.90626L6.90732 24.931H6.90785C6.90838 25.0559 6.94876 25.1855 7.02207 25.2801C7.12248 25.4113 7.3031 25.5 7.46832 25.5C7.63035 25.5 7.8062 25.415 7.9066 25.2886C7.92785 25.262 7.94591 25.2339 7.96185 25.2041L12.6894 16.184C12.776 16.0193 12.7697 15.8217 12.6735 15.6629C12.5774 15.504 12.4047 15.4063 12.2188 15.4063Z" fill="#5B5959"/>
</svg>
