<svg width="79" height="86" viewBox="0 0 79 86" fill="none" xmlns="http://www.w3.org/2000/svg">
<path d="M39.2281 43.7544C40.8938 43.7544 42.2456 42.4025 42.2456 40.7368V3.01754C42.2456 1.35186 40.8938 0 39.2281 0C37.5624 0 36.2105 1.35186 36.2105 3.01754V40.7368C36.2105 42.4025 37.5624 43.7544 39.2281 43.7544Z" fill="#474747"/>
<path d="M78.3324 43.7921C78.3219 43.6548 78.3128 43.516 78.3007 43.3787C77.0032 28.2502 67.1253 15.5826 53.5523 10.2536C53.4135 10.1993 53.2778 10.1435 53.1389 10.0907C52.2578 9.75723 51.3631 9.45396 50.4533 9.18238C50.3869 9.16277 50.3236 9.13561 50.2572 9.116C50.2391 9.11147 50.221 9.116 50.2029 9.11147C48.3576 8.57435 46.4551 8.17603 44.5088 7.912V14.0044C60.3101 16.5407 72.4211 30.266 72.4211 46.7719C72.4211 65.0748 57.531 79.9649 39.2281 79.9649C20.9252 79.9649 6.03509 65.0748 6.03509 46.7719C6.03509 30.266 18.146 16.5407 33.9474 14.0029V7.91049C32.0192 8.17301 30.1317 8.5668 28.3015 9.09638C28.2834 9.10091 28.2638 9.09638 28.2457 9.10091C28.1748 9.12203 28.1084 9.14919 28.039 9.17031C27.1277 9.44038 26.2315 9.74214 25.3489 10.0771C25.2131 10.1284 25.0803 10.1842 24.9445 10.237C23.051 10.9778 21.2284 11.8605 19.4918 12.8743C19.4767 12.8834 19.4616 12.8909 19.4451 12.9C8.73881 19.1689 1.2734 30.361 0.155403 43.3742C0.143333 43.5115 0.134281 43.6503 0.123719 43.7891C0.0497895 44.7743 0 45.7671 0 46.7719C0 68.4364 17.5636 86 39.2281 86C60.8925 86 78.4561 68.4364 78.4561 46.7719C78.4561 45.7686 78.4063 44.7758 78.3324 43.7921Z" fill="#474747"/>
</svg>
