<svg width="13" height="22" viewBox="0 0 13 22" fill="none" xmlns="http://www.w3.org/2000/svg">
<path d="M12.2329 7.62903C12.1737 7.50308 12.0463 7.42225 11.906 7.42225H7.63073L11.8501 0.815867C11.9204 0.705682 11.9248 0.566148 11.8613 0.452023C11.7978 0.33752 11.6765 0.266663 11.5452 0.266663H5.77269C5.63595 0.266663 5.5111 0.343222 5.4498 0.464517L0.0380433 11.1979C-0.0178922 11.3084 -0.0117617 11.4401 0.0538981 11.5456C0.119938 11.6511 0.235742 11.7155 0.360931 11.7155H4.07086L0.0282767 21.2367C-0.0406386 21.3995 0.0207088 21.5884 0.172576 21.6808C0.231006 21.7162 0.295947 21.7333 0.36055 21.7333C0.464092 21.7333 0.566197 21.6893 0.63693 21.6063L12.182 8.01074C12.2725 7.90416 12.292 7.75532 12.2329 7.62903Z" fill="#716B39"/>
</svg>
